<svg width="54" height="33" viewBox="0 0 54 33" fill="none" xmlns="http://www.w3.org/2000/svg">
<path d="M27.2025 0C10.125 0 0 16.4189 0 16.4189C0 16.4189 10.125 32.8378 27.2025 32.8378C43.875 32.8378 54 16.4189 54 16.4189C54 16.4189 43.875 0 27.2025 0ZM27 5.47297C34.4925 5.47297 40.5 10.3986 40.5 16.4189C40.5 22.4939 34.4925 27.3649 27 27.3649C19.575 27.3649 13.5 22.4939 13.5 16.4189C13.5 10.3986 19.575 5.47297 27 5.47297ZM27 10.9459C23.2875 10.9459 20.25 13.4088 20.25 16.4189C20.25 19.4291 23.2875 21.8919 27 21.8919C30.7125 21.8919 33.75 19.4291 33.75 16.4189C33.75 15.8716 33.48 15.3791 33.345 14.8865C32.805 15.7622 31.725 16.4189 30.375 16.4189C28.485 16.4189 27 15.2149 27 13.6824C27 12.5878 27.81 11.7122 28.89 11.2743C28.2825 11.1101 27.675 10.9459 27 10.9459Z" fill="white"/>
</svg>
