<svg width="16" height="17" viewBox="0 0 16 17" fill="none" xmlns="http://www.w3.org/2000/svg">
<path d="M2.8 11.2713C1.22481 10.3618 0.437222 9.90713 0.172908 9.31347C-0.0576371 8.79566 -0.0576371 8.20434 0.172908 7.68653C0.437222 7.09287 1.22481 6.63815 2.8 5.72872L10.45 1.31199C12.0252 0.402554 12.8128 -0.0521627 13.4591 0.015764C14.0228 0.0750125 14.5349 0.370672 14.868 0.829237C15.25 1.35497 15.25 2.2644 15.25 4.08327L15.25 12.9167C15.25 14.7356 15.25 15.645 14.868 16.1708C14.5349 16.6293 14.0228 16.925 13.4591 16.9842C12.8128 17.0522 12.0252 16.5974 10.45 15.688L2.8 11.2713Z" fill="black"/>
</svg>
